# AST/ASF file generated using VICON BodyLanguage
# -----------------------------------------------
:version 1.10
:name VICON
:units
  mass 1.0
  length 0.45
  angle deg
:documentation
   .ast/.asf automatically generated from VICON data using
   VICON BodyBuilder and BodyLanguage model FoxedUp or BRILLIANT.MOD
:root
   order TX TY TZ RX RY RZ
   axis XYZ
   position 0 0 0  
   orientation 0 0 0 
:bonedata
  begin
     id 1 
     name lhipjoint
     direction 0.690799 -0.707083 0.151096 
     length 2.54797 
     axis 0 0 0  XYZ
  end
  begin
     id 2 
     name lfemur
     direction 0.34202 -0.939693 0  
     length 7.21646  
     axis 0 0 20  XYZ
    dof rx ry rz
    limits (-160.0 20.0)
           (-70.0 70.0)
           (-60.0 70.0)
  end
  begin
     id 3 
     name ltibia
     direction 0.34202 -0.939693 0   
     length 8.16759   
     axis 0 0 20   XYZ
    dof rx
    limits (-10.0 170.0)
  end
  begin
     id 4 
     name lfoot
     direction 0.0487203 -0.133858 0.989802   
     length 1.93375   
     axis -90 7.62852e-016 20   XYZ
    dof rx rz
    limits (-45.0 90.0)
           (-70.0 20.0)
  end
  begin
     id 5 
     name ltoes
     direction 1.53453e-011 -4.21783e-011 1   
     length 0.979747   
     axis -90 7.62852e-016 20   XYZ
    dof rx
    limits (-90.0 20.0)
  end
  begin
     id 6 
     name rhipjoint
     direction -0.694693 -0.703425 0.150315   
     length 2.56122  
     axis 0 0 0  XYZ 
  end
  begin
     id 7 
     name rfemur
     direction -0.34202 -0.939693 0   
     length 7.36786   
     axis 0 0 -20   XYZ
    dof rx ry rz
    limits (-160.0 20.0)
           (-70.0 70.0)
           (-70.0 60.0)
  end
  begin
     id 8 
     name rtibia
     direction -0.34202 -0.939693 0   
     length 8.07288   
     axis 0 0 -20   XYZ
    dof rx
    limits (-10.0 170.0)
 end
 begin
     id 9 
     name rfoot
     direction -0.0428397 -0.117701 0.992125   
     length 1.88295  
     axis -90 -7.62852e-016 -20   XYZ
    dof rx rz
    limits (-45.0 90.0)
           (-20.0 70.0)
  end
  begin
     id 10 
     name rtoes
     direction -1.53456e-011 -4.2187e-011 1   
     length 0.955578   
     axis -90 -7.62852e-016 -20   XYZ
    dof rx
    limits (-90.0 20.0)
  end
  begin
     id 11 
     name lowerback
     direction 0.0288145 0.999398 -0.0193241   
     length 1.92149   
     axis 0 0 0   XYZ
    dof rx ry rz
    limits (-20.0 45.0)
           (-30.0 30.0)
           (-30.0 30.0)
  end
  begin
     id 12 
     name upperback
     direction 0.0233784 0.998099 0.0570278   
     length 1.90435   
     axis 0 0 0   XYZ
    dof rx ry rz
    limits (-20.0 45.0)
           (-30.0 30.0)
           (-30.0 30.0)
  end
  begin
     id 13 
     name thorax
     direction 0.0096694 0.997833 0.0650817   
     length 1.9111   
     axis 0 0 0   XYZ
    dof rx ry rz
    limits (-20.0 45.0)
           (-30.0 30.0)
           (-30.0 30.0)
  end
  begin
     id 14 
     name lowerneck
     direction 0.00516803 0.999916 0.0118722   
     length 1.74664   
     axis 0 0 0   XYZ
    dof rx ry rz
    limits (-20.0 45.0)
           (-30.0 30.0)
           (-30.0 30.0)
  end
  begin
     id 15 
     name upperneck
     direction -0.0510851 0.996117 -0.071696   
     length 1.68498   
     axis 0 0 0   XYZ
    dof rx ry rz
    limits (-20.0 45.0)
           (-30.0 30.0)
           (-30.0 30.0)
  end
  begin
     id 16
     name head
     direction -0.019188 0.999436 -0.0275702  
     length 1.83483  
     axis 0 0 0   XYZ
    dof rx ry rz
    limits (-20.0 45.0)
           (-30.0 30.0)
           (-30.0 30.0)
  end
  begin
     id 17 
     name lclavicle
     direction 0.967006 0.248456 -0.0562957  
     length 3.39395  
     axis 0 0 0   XYZ
    dof ry rz
    limits (-20.0 10.0)
           (0.0 20.0)
  end
  begin
     id 18 
     name lhumerus
     direction 1 -4.48962e-011 -5.62711e-019   
     length 5.24318   
     axis 180 -30 -90   XYZ
    dof rx ry rz
    limits (-60.0 90.0)
           (-90.0 90.0)
           (-90.0 90.0)
  end
  begin
     id 19
     name lradius
     direction 1 -4.48966e-011 7.90625e-027   
     length 2.98999   
     axis 180 -30 -90   XYZ
    dof rx
    limits (-10.0 170.0)
  end
  begin
     id 20
     name lwrist
     direction 1 -4.48959e-011 1.61068e-026   
     length 1.49499   
     axis -9.31229e-015 90 90   XYZ
    dof ry
    limits (-180.0 0.0)
 end
  begin
     id 21 
     name lhand
     direction 1 -4.49017e-011 3.22136e-026   
     length 0.726745   
     axis -2.0555e-014 90 90   XYZ
    dof rx rz
    limits (-90.0 90.0)
           (-45.0 45.0)
  end
  begin
     id 22 
     name lfingers
     direction 1 -4.4898e-011 6.44272e-026   
     length 0.58592   
     axis -4.11101e-014 90 90   XYZ
    dof rx
    limits (0.0 90.0)
  end
  begin
     id 23
     name lthumb
     direction 0.707107 -6.34922e-011 0.707107   
     length 0.841268   
     axis -90 45 2.85299e-015   XYZ
    dof rx rz
    limits (-45.0 45.0)
           (-45.0 45.0)
  end
  begin
     id 24 
     name rclavicle
     direction -0.972232 0.230238 0.0419005   
     length 3.40416  
     axis 0 0 0   XYZ 
    dof ry rz
    limits (-10.0 20.0)
           (-20.0 0.0)
  end
  begin
     id 25 
     name rhumerus
     direction -1 -4.48976e-011 2.48487e-027  
     length 5.37045   
     axis 180 30 90   XYZ
    dof rx ry rz
    limits (-90.0 60.0)
           (-90.0 90.0)
           (-90.0 90.0)
  end
  begin
     id 26 
     name rradius
     direction -1 -4.48942e-011 7.87951e-027   
     length 2.92792   
     axis 180 30 90   XYZ
    dof rx
    limits (-10.0 170.0)
  end
  begin
     id 27 
     name rwrist
     direction -1 -4.48969e-011 1.61068e-026   
     length 1.46396   
     axis -9.31229e-015 -90 -90   XYZ
    dof ry
    limits (-180.0 0.0)
  end
  begin
     id 28
     name rhand
     direction -1 -4.49043e-011 3.22136e-026   
     length 0.784497   
     axis -2.0555e-014 -90 -90   XYZ
    dof rx rz
    limits (-90.0 90.0)
           (-45.0 45.0)
  end
  begin
     id 29
     name rfingers
     direction -1 -4.48823e-011 6.44272e-026   
     length 0.632482   
     axis -4.11101e-014 -90 -90   XYZ
    dof rx
    limits (0.0 90.0)
  end
  begin
     id 30
     name rthumb
     direction -0.707107 -6.34923e-011 0.707107   
     length 0.908121   
     axis -90 -45 -2.85299e-015   XYZ
    dof rx rz
    limits (-45.0 45.0)
           (-45.0 45.0)
  end
:hierarchy
  begin
    root lhipjoint rhipjoint lowerback
    lhipjoint lfemur
    lfemur ltibia
    ltibia lfoot
    lfoot ltoes
    rhipjoint rfemur
    rfemur rtibia
    rtibia rfoot
    rfoot rtoes
    lowerback upperback
    upperback thorax
    thorax lowerneck lclavicle rclavicle
    lowerneck upperneck
    upperneck head
    lclavicle lhumerus
    lhumerus lradius
    lradius lwrist
    lwrist lhand lthumb
    lhand lfingers
    rclavicle rhumerus
    rhumerus rradius
    rradius rwrist
    rwrist rhand rthumb
    rhand rfingers
  end

#!OML:ASF E:\Style6\Style6.ASF
:FULLY-SPECIFIED
:DEGREES
1454
root 0.30369 18.2583 -0.240073 2.48485 -5.08164 -1.58249
lowerback -6.39232 -0.0641885 3.77876
upperback 8.00787 -0.749599 1.74063
thorax 12.2451 -0.122892 -0.35206
lowerneck 16.163 0.597725 2.25992
upperneck -7.87632 0.663366 -5.23963
head -4.96452 0.623378 -2.06836
rclavicle 1.78906e-015 3.89618e-014
rhumerus -3.04058 27.2872 -103.101
rradius 139.287
rwrist 49.9568
rhand 30.8549 -7.07422
rfingers 7.12502
rthumb 54.4738 -25.5867
lclavicle 1.78906e-015 3.89618e-014
lhumerus -7.02388 -23.3555 99.2835
lradius 134.467
lwrist -32.2674
lhand 7.71343 37.4686
lfingers 7.12502
lthumb 32.9545 64.4784
rfemur -7.46363 17.9945 20.1677
rtibia 10.652
rfoot -5.5664 -23.0815
rtoes 6.96808
lfemur -6.25361 -20.58 -17.1073
ltibia 16.7381
lfoot -5.90453 26.9697
ltoes -8.73798
1455
root 0.303499 18.2581 -0.236206 2.50457 -5.06212 -1.51478
lowerback -6.4209 -0.0440961 3.7216
upperback 8.02265 -0.71258 1.69574
thorax 12.2804 -0.107067 -0.362563
lowerneck 16.0653 0.562391 2.34445
upperneck -7.78321 0.633984 -5.26133
head -4.92046 0.605804 -2.08449
rclavicle 1.17283e-014 2.94201e-014
rhumerus -2.97722 27.2536 -103.148
rradius 139.22
rwrist 49.9162
rhand 30.7402 -7.0159
rfingers 7.12502
rthumb 54.3712 -25.5998
lclavicle 1.17283e-014 2.94201e-014
lhumerus -6.95552 -23.387 99.2223
lradius 134.44
lwrist -32.2576
lhand 7.6122 37.2701
lfingers 7.12502
lthumb 32.8582 64.3001
rfemur -7.53395 17.9797 20.0887
rtibia 10.7696
rfoot -5.6767 -23.0481
rtoes 7.0275
lfemur -6.24158 -20.5476 -17.1789
ltibia 16.6787
lfoot -5.76736 26.9497
ltoes -9.09272
1456
root 0.303599 18.2574 -0.232019 2.50721 -5.05521 -1.51798
lowerback -6.43821 -0.0179612 3.74433
upperback 8.04068 -0.67853 1.66725
thorax 12.3128 -0.0864546 -0.400306
lowerneck 16.0372 0.536724 2.37781
upperneck -7.75743 0.608368 -5.25272
head -4.90878 0.591045 -2.08446
rclavicle -6.55989e-015 -7.95139e-015
rhumerus -2.94399 27.271 -103.085
rradius 139.212
rwrist 49.9087
rhand 30.6686 -7.04107
rfingers 7.12502
rthumb 54.3071 -25.6693
lclavicle -6.55989e-015 -7.95139e-015
lhumerus -6.89828 -23.409 99.1659
lradius 134.399
lwrist -32.1901
lhand 7.54219 37.068
lfingers 7.12502
lthumb 32.7916 64.1119
rfemur -7.58161 17.9562 20.0961
rtibia 10.8952
rfoot -5.68898 -23.0172
rtoes 6.5981
lfemur -6.1908 -20.552 -17.1817
ltibia 16.605
lfoot -5.78263 26.9185
ltoes -9.01626
1457
root 0.304336 18.2575 -0.225037 2.51444 -5.0622 -1.45631
lowerback -6.51873 0.00213639 3.7041
upperback 8.05712 -0.646184 1.62015
thorax 12.3822 -0.0707357 -0.423442
lowerneck 16.0049 0.532245 2.41373
upperneck -7.72362 0.611755 -5.24515
head -4.89272 0.59035 -2.08756
rclavicle 1.23246e-014 2.0276e-014
rhumerus -2.92037 27.3034 -103.051
rradius 139.256
rwrist 49.8782
rhand 30.7728 -7.00014
rfingers 7.12502
rthumb 54.4003 -25.5638
lclavicle 1.23246e-014 2.0276e-014
lhumerus -6.85258 -23.394 99.1034
lradius 134.372
lwrist -32.1761
lhand 7.60103 36.8431
lfingers 7.12502
lthumb 32.8476 63.8753
rfemur -7.62332 17.9308 20.0299
rtibia 11.0023
rfoot -5.64332 -23.0149
rtoes 6.12401
lfemur -6.13092 -20.5553 -17.2678
ltibia 16.5254
lfoot -5.60597 26.931
ltoes -9.6243
1458
root 0.305588 18.2585 -0.217912 2.48986 -5.05415 -1.39523
lowerback -6.32814 -0.00866798 3.56585
upperback 7.95201 -0.632587 1.65038
thorax 12.1432 -0.0824654 -0.312227
lowerneck 16.0357 0.559792 2.33603
upperneck -7.63299 0.635922 -5.24364
head -4.86879 0.604082 -2.07599
rclavicle -2.98177e-015 1.11319e-014
rhumerus -3.1849 27.3795 -103.101
rradius 139.308
rwrist 49.8467
rhand 30.7116 -6.91478
rfingers 7.12502
rthumb 54.3456 -25.5164
lclavicle -2.98177e-015 1.11319e-014
lhumerus -7.03863 -23.3077 99.2098
lradius 134.378
lwrist -32.2139
lhand 7.55369 36.6878
lfingers 7.12502
lthumb 32.8026 63.7294
rfemur -7.60731 17.8959 19.9723
rtibia 11.0768
rfoot -5.69051 -22.9572
rtoes 6.0388
lfemur -6.04169 -20.5788 -17.3635
ltibia 16.4596
lfoot -5.35838 26.9531
ltoes -10.3823
1459
root 0.307816 18.2592 -0.211767 2.48973 -4.99208 -1.3298
lowerback -6.37492 -0.007354 3.54658
upperback 7.97591 -0.626588 1.60278
thorax 12.1992 -0.0775941 -0.351906
lowerneck 16.1572 0.56733 2.31091
upperneck -7.78833 0.64515 -5.16847
head -4.93661 0.606992 -2.05169
rclavicle 1.5704e-014 -2.22639e-014
rhumerus -3.2019 27.4844 -103.119
rradius 139.4
rwrist 49.858
rhand 30.687 -7.00299
rfingers 7.12502
rthumb 54.3235 -25.6199
lclavicle 1.5704e-014 -2.22639e-014
lhumerus -6.96602 -23.3843 99.1577
lradius 134.364
lwrist -32.1959
lhand 7.48628 36.7002
lfingers 7.12502
lthumb 32.7384 63.7553
rfemur -7.59931 17.8851 19.8953
rtibia 11.1136
rfoot -5.84751 -22.9609
rtoes 6.77128
lfemur -6.01377 -20.6679 -17.4475
ltibia 16.4223
lfoot -5.29113 26.9949
ltoes -10.4843
1460
root 0.309353 18.2588 -0.20628 2.51594 -4.95351 -1.30162
lowerback -6.21381 -0.0178165 3.4672
upperback 7.84023 -0.621711 1.6434
thorax 11.9438 -0.0888442 -0.264197
lowerneck 16.3011 0.559981 2.20915
upperneck -7.7326 0.620526 -5.1371
head -4.9438 0.597205 -2.02402
rclavicle 4.57205e-015 -9.93923e-015
rhumerus -3.46259 27.5819 -103.15
rradius 139.508
rwrist 49.8717
rhand 30.7197 -7.07819
rfingers 7.12502
rthumb 54.3528 -25.6748
lclavicle 4.57205e-015 -9.93923e-015
lhumerus -7.23744 -23.3368 99.3526
lradius 134.401
lwrist -32.2482
lhand 7.54332 36.6966
lfingers 7.12502
lthumb 32.7927 63.7403
rfemur -7.58754 17.8743 19.8557
rtibia 11.0843
rfoot -5.92706 -23.0002
rtoes 7.00932
lfemur -6.03937 -20.6944 -17.4754
ltibia 16.4396
lfoot -5.52268 26.9603
ltoes -9.61527
